# xmcd
#
# Track frame offsets: 
#        150
#        19341
#        35482
#        48165
#        67995
#        83249
#        99202
#        115332
#        133140
#        150530
#        170273
#        186334
#        206250
#        220990
#        235014
#        250274
#        272119
#        294976
#        316625
#
# Disc length: 4420 seconds
#
# Revision: 1
# Processed by: cddbd v1.5.2PL0 Copyright (c) Steve Scherf et al.
# Submitted via: ExactAudioCopy v0.95a5
#
DISCID=01114213
DTITLE=Various Artist - V.I.P. HOT R&B HIPHOP TRAX III [Disc 1]
DYEAR=2005
DGENRE=R&B
TTITLE0=Triniti - Big Ups
TTITLE1=Fya - Too Hot
TTITLE2=Jermaine Dupri - Gotta Getcha
TTITLE3=Houston - Allright
TTITLE4=Brooke Valentine Feat. Jermaine Dupri - Playa
TTITLE5=Red Cafe - All Night Long
TTITLE6=Jin - So Afraid
TTITLE7=Chingy Feat. R.Kelly - Leave Wit Me
TTITLE8=Ebony Eyez Feat. Trey Songz - Hot Chick
TTITLE9=Mack 10 - Livin Just To Ball
TTITLE10=CzarNok - A Time To See
TTITLE11=Jamelia Feat. Rah Digga - Bout
TTITLE12=Sean Paul - Shake It
TTITLE13=Jazzy Pha and Cee-Lo - Happy Hour
TTITLE14=Gang Starr - Love Sick
TTITLE15=N*E*R*D - Run To The Sun
TTITLE16=The Pharcyde - Y?
TTITLE17=Kelis Feat. Marc Dorcey and N*E*R*D - Ghetto Children
TTITLE18=Sharissa - I Got Love
EXTD=
EXTT0=
EXTT1=
EXTT2=
EXTT3=
EXTT4=
EXTT5=
EXTT6=
EXTT7=
EXTT8=
EXTT9=
EXTT10=
EXTT11=
EXTT12=
EXTT13=
EXTT14=
EXTT15=
EXTT16=
EXTT17=
EXTT18=
PLAYORDER=
